<svg xmlns="http://www.w3.org/2000/svg" xmlns:xlink="http://www.w3.org/1999/xlink" version="1.1" width="1000" height="1000" viewBox="0 0 1000 1000" xml:space="preserve">
<desc>Created with Fabric.js 3.5.0</desc>
<defs>
</defs>
<rect x="0" y="0" width="100%" height="100%" fill="rgba(255,255,255,0)"/>
<g transform="matrix(7.3954 0 0 7.3954 500.0021 500.0021)" id="453986">
<path style="stroke: none; stroke-width: 1; stroke-dasharray: none; stroke-linecap: butt; stroke-dashoffset: 0; stroke-linejoin: miter; stroke-miterlimit: 4; is-custom-font: none; font-file-url: none; fill: rgb(229,229,229); fill-rule: nonzero; opacity: 1;" vector-effect="non-scaling-stroke" transform=" translate(-61.4601, -61.4631)" d="M 61.44 0 A 61.46 61.46 0 1 1 18 18 A 61.21 61.21 0 0 1 61.44 0 Z M 77 57.42 l -7.23 4.11 a 7.56 7.56 0 0 1 -0.25 1.57 a 8 8 0 0 1 -9.75 5.63 a 8.19 8.19 0 0 1 -1.58 -0.61 l -7.66 4.36 L 81.43 95.23 L 77 57.42 Z M 46.55 65.88 l 7.37 -4.19 A 7.86 7.86 0 0 1 54.16 59 a 8 8 0 0 1 9.75 -5.63 a 8.28 8.28 0 0 1 2.55 1.2 L 73 50.82 L 42.14 28.07 l 4.41 37.81 Z M 95.36 27.52 a 48 48 0 1 0 14 33.92 a 47.82 47.82 0 0 0 -14 -33.92 Z" stroke-linecap="round"/>
</g>
</svg>