<svg xmlns="http://www.w3.org/2000/svg" xmlns:xlink="http://www.w3.org/1999/xlink" version="1.1" width="1000" height="1000" viewBox="0 0 1000 1000" xml:space="preserve">
<desc>Created with Fabric.js 3.5.0</desc>
<defs>
</defs>
<rect x="0" y="0" width="100%" height="100%" fill="rgba(255,255,255,0)"/>
<g transform="matrix(1.7756 0 0 1.7756 500.009 500.0091)" id="940813">
<path style="stroke: none; stroke-width: 1; stroke-dasharray: none; stroke-linecap: butt; stroke-dashoffset: 0; stroke-linejoin: miter; stroke-miterlimit: 4; is-custom-font: none; font-file-url: none; fill: rgb(229,229,229); fill-rule: nonzero; opacity: 1;" vector-effect="non-scaling-stroke" transform=" translate(-255.9985, -255.9966)" d="m 266.21 252.52 l 67.42 233.85 L 491.08 20.91 L 25.62 178.36 l 233.85 67.42 c 3.38 0.97 5.84 3.59 6.74 6.74 z m 50.84 247.07 l -68.18 -236.47 l -236.89 -68.29 c -4.09 -1.37 -7.2 -3.96 -9.24 -7.12 A 17.576 17.576 0 0 1 0 178.6 c -0.05 -3.26 0.83 -6.56 2.69 -9.41 c 1.85 -2.86 4.62 -5.23 8.3 -6.61 C 154.25 108.21 342.94 43.44 489.62 0.69 c 3.48 -0.92 6.84 -0.89 9.86 -0.08 c 2.9 0.77 5.48 2.27 7.54 4.33 c 2.08 2.07 3.59 4.65 4.38 7.62 c 0.8 3.01 0.83 6.37 -0.1 9.85 L 349.65 500.38 c -1.37 3.99 -3.84 6.97 -6.85 8.93 c -2.84 1.84 -6.15 2.73 -9.42 2.68 c -3.19 -0.05 -6.38 -0.98 -9.1 -2.74 l -0.04 -0.04 c -3.13 -2.03 -5.72 -5.13 -7.08 -9.24 l -0.11 -0.38 z" stroke-linecap="round"/>
</g>
</svg>