<svg xmlns="http://www.w3.org/2000/svg" xmlns:xlink="http://www.w3.org/1999/xlink" version="1.1" width="1000" height="1000" viewBox="0 0 1000 1000" xml:space="preserve">
<desc>Created with Fabric.js 3.5.0</desc>
<defs>
</defs>
<rect x="0" y="0" width="100%" height="100%" fill="rgba(255,255,255,0)"/>
<g transform="matrix(7.398 0 0 7.398 500.0014 500.002)" id="774102">
<path style="stroke: none; stroke-width: 1; stroke-dasharray: none; stroke-linecap: butt; stroke-dashoffset: 0; stroke-linejoin: miter; stroke-miterlimit: 4; is-custom-font: none; font-file-url: none; fill: rgb(229,229,229); fill-rule: nonzero; opacity: 1;" vector-effect="non-scaling-stroke" transform=" translate(-41.975, -61.4381)" d="M 44.82 2.28 c 5.08 21.69 12.03 30.25 19.61 39.58 c 4.9 6.04 10.06 12.39 15.19 22.47 c 1.31 2.58 2.39 5.25 3.14 8.06 c 0.76 2.84 1.19 5.79 1.19 8.87 c 0 5.68 -1.04 10.99 -3.11 15.92 c -2.07 4.91 -5.16 9.4 -9.27 13.46 c -4.12 4.05 -8.65 7.11 -13.6 9.16 c -4.96 2.05 -10.3 3.08 -16.01 3.08 c -5.71 0 -11.04 -1.03 -15.99 -3.08 c -4.93 -2.04 -9.45 -5.1 -13.57 -9.16 c -4.11 -4.06 -7.21 -8.55 -9.28 -13.46 C 1.04 92.25 0 86.94 0 81.26 c 0 -2.91 0.38 -5.7 1.06 -8.39 c 0.67 -2.64 1.64 -5.18 2.84 -7.66 c 5.02 -10.38 10.29 -16.84 15.36 -23.07 c 7.61 -9.34 14.79 -18.14 19.79 -39.85 c 0.36 -1.59 1.95 -2.58 3.54 -2.22 C 43.74 0.34 44.57 1.22 44.82 2.28 L 44.82 2.28 z M 20.52 70.91 c 2.1 -0.19 3.95 1.36 4.13 3.45 c 0.48 5.06 1.59 9.72 3.7 13.74 c 2.04 3.88 5.08 7.23 9.48 9.8 c 1.81 1.06 2.42 3.4 1.36 5.21 c -1.06 1.81 -3.4 2.42 -5.2 1.36 c -5.73 -3.35 -9.69 -7.71 -12.38 -12.82 c -2.7 -5.14 -3.99 -10.86 -4.54 -16.6 C 16.88 72.96 18.44 71.1 20.52 70.91 L 20.52 70.91 z M 59.85 45.59 c -6.68 -8.23 -12.9 -15.88 -17.9 -31.44 c -5.02 15.66 -11.4 23.5 -18.1 31.72 c -4.86 5.96 -9.9 12.14 -14.62 21.91 c -1.02 2.1 -1.85 4.28 -2.42 6.55 c -0.56 2.22 -0.88 4.52 -0.88 6.93 c 0 4.92 0.88 9.46 2.63 13.63 c 1.76 4.18 4.43 8.03 7.98 11.54 c 3.57 3.52 7.47 6.16 11.7 7.91 c 4.21 1.74 8.78 2.62 13.72 2.62 c 4.96 0 9.55 -0.88 13.77 -2.62 c 4.22 -1.75 8.13 -4.39 11.7 -7.91 c 3.55 -3.51 6.21 -7.36 7.97 -11.54 c 1.75 -4.16 2.63 -8.7 2.63 -13.63 c 0 -2.57 -0.35 -5 -0.98 -7.34 c -0.64 -2.37 -1.56 -4.66 -2.7 -6.9 C 69.47 57.44 64.54 51.37 59.85 45.59 L 59.85 45.59 z" stroke-linecap="round"/>
</g>
</svg>