<svg xmlns="http://www.w3.org/2000/svg" xmlns:xlink="http://www.w3.org/1999/xlink" version="1.1" width="1000" height="1000" viewBox="0 0 1000 1000" xml:space="preserve">
<desc>Created with Fabric.js 3.5.0</desc>
<defs>
</defs>
<rect x="0" y="0" width="100%" height="100%" fill="rgba(255,255,255,0)"/>
<g transform="matrix(7.3982 0 0 7.3982 499.9999 499.9999)" id="636859">
<path style="stroke: none; stroke-width: 1; stroke-dasharray: none; stroke-linecap: butt; stroke-dashoffset: 0; stroke-linejoin: miter; stroke-miterlimit: 4; is-custom-font: none; font-file-url: none; fill: rgb(229,229,229); fill-rule: evenodd; opacity: 1;" vector-effect="non-scaling-stroke" transform=" translate(-40.985, -61.44)" d="M 40.95 0 c 2.64 11.28 5.67 20.29 9.04 26.98 c 3.37 6.69 8.53 13.94 15.45 21.76 l 2.98 3.32 c 9.04 10.06 13.55 20.15 13.55 30.21 c 0 11.14 -4.02 20.69 -12.07 28.65 c -8.08 7.96 -17.71 11.96 -28.93 11.96 c -11.19 0 -20.8 -4 -28.88 -11.96 C 4.03 102.96 0 93.41 0 82.27 c 0 -10.06 4.51 -20.15 13.55 -30.21 l 2.98 -3.32 c 6.91 -7.82 12.07 -15.07 15.45 -21.76 C 35.34 20.29 38.35 11.28 40.95 0 L 40.95 0 z M 13.81 76.29 c -0.21 -2.28 1.48 -4.3 3.76 -4.51 c 2.29 -0.21 4.31 1.48 4.51 3.76 c 0.52 5.52 1.73 10.61 4.04 15 c 2.23 4.24 5.55 7.89 10.35 10.7 c 1.98 1.16 2.64 3.71 1.48 5.68 c -1.16 1.98 -3.71 2.64 -5.68 1.48 c -6.25 -3.66 -10.58 -8.42 -13.51 -13.99 C 15.91 88.99 14.43 82.86 13.81 76.29 L 13.81 76.29 L 13.81 76.29 z" stroke-linecap="round"/>
</g>
</svg>