<svg xmlns="http://www.w3.org/2000/svg" xmlns:xlink="http://www.w3.org/1999/xlink" version="1.1" width="1000" height="1000" viewBox="0 0 1000 1000" xml:space="preserve">
<desc>Created with Fabric.js 3.5.0</desc>
<defs>
</defs>
<rect x="0" y="0" width="100%" height="100%" fill="rgba(255,255,255,0)"/>
<g transform="matrix(7.3982 0 0 7.3982 499.9999 499.9999)" id="479465">
<path style="stroke: none; stroke-width: 1; stroke-dasharray: none; stroke-linecap: butt; stroke-dashoffset: 0; stroke-linejoin: miter; stroke-miterlimit: 4; is-custom-font: none; font-file-url: none; fill: rgb(229,229,229); fill-rule: nonzero; opacity: 1;" vector-effect="non-scaling-stroke" transform=" translate(-61.435, -61.44)" d="M 52.01 110.22 c -9.96 -1.91 -18.86 -6.79 -25.76 -13.68 c -6.9 -6.9 -11.77 -15.8 -13.68 -25.77 h 6.21 c 1.82 8.28 5.99 15.68 11.78 21.47 c 5.78 5.78 13.18 9.95 21.46 11.78 V 110.22 L 52.01 110.22 z M 96.31 64.48 c -1.68 0 -3.04 -1.36 -3.04 -3.04 c 0 -1.68 1.36 -3.04 3.04 -3.04 h 23.52 c 1.68 0 3.04 1.36 3.04 3.04 c 0 1.68 -1.36 3.04 -3.04 3.04 H 96.31 L 96.31 64.48 L 96.31 64.48 z M 64.48 26.57 c 0 1.68 -1.36 3.04 -3.04 3.04 c -1.68 0 -3.04 -1.36 -3.04 -3.04 V 3.04 C 58.4 1.36 59.76 0 61.44 0 c 1.68 0 3.04 1.36 3.04 3.04 V 26.57 L 64.48 26.57 L 64.48 26.57 z M 64.48 119.84 c 0 1.68 -1.36 3.04 -3.04 3.04 c -1.68 0 -3.04 -1.36 -3.04 -3.04 V 96.31 c 0 -4 6.08 -4 6.08 0 V 119.84 L 64.48 119.84 L 64.48 119.84 z M 3.04 64.48 C 1.36 64.48 0 63.12 0 61.44 c 0 -1.68 1.36 -3.04 3.04 -3.04 h 23.52 c 1.68 0 3.04 1.36 3.04 3.04 c 0 1.68 -1.36 3.04 -3.04 3.04 H 3.04 L 3.04 64.48 L 3.04 64.48 z M 61.43 46.94 c 8.01 0 14.5 6.49 14.5 14.5 c 0 8.01 -6.49 14.5 -14.5 14.5 c -8.01 0 -14.5 -6.49 -14.5 -14.5 C 46.94 53.43 53.43 46.94 61.43 46.94 L 61.43 46.94 z M 12.56 51.92 c 1.91 -9.96 6.79 -18.86 13.68 -25.76 c 6.9 -6.9 15.8 -11.78 25.77 -13.69 v 6.22 c -8.28 1.82 -15.68 5.99 -21.47 11.78 c -5.78 5.78 -9.96 13.17 -11.77 21.45 H 12.56 L 12.56 51.92 z M 70.86 12.46 c 9.97 1.91 18.87 6.79 25.77 13.69 c 6.9 6.89 11.78 15.81 13.68 25.77 h -6.21 c -1.82 -8.28 -5.99 -15.69 -11.78 -21.47 c -5.78 -5.79 -13.18 -9.96 -21.46 -11.78 V 12.46 L 70.86 12.46 z M 110.32 70.77 c -1.91 9.96 -6.79 18.87 -13.69 25.77 c -6.9 6.9 -15.8 11.78 -25.77 13.69 v -6.21 c 16.55 -3.64 29.62 -16.69 33.25 -33.25 H 110.32 L 110.32 70.77 z" stroke-linecap="round"/>
</g>
</svg>