<svg xmlns="http://www.w3.org/2000/svg" xmlns:xlink="http://www.w3.org/1999/xlink" version="1.1" width="1000" height="1000" viewBox="0 0 1000 1000" xml:space="preserve">
<desc>Created with Fabric.js 3.5.0</desc>
<defs>
</defs>
<rect x="0" y="0" width="100%" height="100%" fill="rgba(255,255,255,0)"/>
<g transform="matrix(0.9091 0 0 0.9091 500.0045 500.0045)" id="832444">
<g style="" vector-effect="non-scaling-stroke">
		<g transform="matrix(1 0 0 1 -450 -450)">
<rect style="stroke: none; stroke-width: 1; stroke-dasharray: none; stroke-linecap: butt; stroke-dashoffset: 0; stroke-linejoin: miter; stroke-miterlimit: 4; is-custom-font: none; font-file-url: none; fill: rgb(255,255,255); fill-opacity: 0; fill-rule: nonzero; opacity: 1;" x="-50" y="-50" rx="0" ry="0" width="100" height="100"/>
</g>
		<g transform="matrix(7.3982 0 0 7.3982 -0.0016 -0.0012)" id="286756">
<path style="stroke: none; stroke-width: 1; stroke-dasharray: none; stroke-linecap: butt; stroke-dashoffset: 0; stroke-linejoin: miter; stroke-miterlimit: 4; is-custom-font: none; font-file-url: none; fill: rgb(229,229,229); fill-rule: nonzero; opacity: 1;" vector-effect="non-scaling-stroke" transform=" translate(-59.9138, -61.4398)" d="M 48.319 0 C 61.662 0 73.74 5.408 82.484 14.152 c 8.744 8.744 14.152 20.823 14.152 34.166 c 0 12.809 -4.984 24.451 -13.117 33.098 c 0.148 0.109 0.291 0.23 0.426 0.364 l 34.785 34.737 c 1.457 1.449 1.465 3.807 0.014 5.265 c -1.449 1.458 -3.807 1.464 -5.264 0.015 L 78.695 87.06 c -0.221 -0.22 -0.408 -0.46 -0.563 -0.715 c -8.213 6.447 -18.564 10.292 -29.814 10.292 c -13.343 0 -25.423 -5.408 -34.167 -14.152 C 5.408 73.741 0 61.661 0 48.318 s 5.408 -25.422 14.152 -34.166 C 22.896 5.409 34.976 0 48.319 0 L 48.319 0 z M 77.082 19.555 c -7.361 -7.361 -17.53 -11.914 -28.763 -11.914 c -11.233 0 -21.403 4.553 -28.764 11.914 C 12.194 26.916 7.641 37.085 7.641 48.318 c 0 11.233 4.553 21.403 11.914 28.764 c 7.36 7.361 17.53 11.914 28.764 11.914 c 11.233 0 21.402 -4.553 28.763 -11.914 c 7.361 -7.36 11.914 -17.53 11.914 -28.764 C 88.996 37.085 84.443 26.916 77.082 19.555 L 77.082 19.555 z" stroke-linecap="round"/>
</g>
</g>
</g>
</svg>