<svg xmlns="http://www.w3.org/2000/svg" version="1.1" xmlns:xlink="http://www.w3.org/1999/xlink" xmlns:svgjs="http://svgjs.dev/svgjs" width="2000" height="252" viewBox="0 0 2000 252"><g transform="matrix(1,0,0,1,-1.2121212121212466,-0.08188189517031219)"><svg viewBox="0 0 396 50" data-background-color="#ffffff" preserveAspectRatio="xMidYMid meet" height="252" width="2000" xmlns="http://www.w3.org/2000/svg" xmlns:xlink="http://www.w3.org/1999/xlink"><g id="tight-bounds" transform="matrix(1,0,0,1,0.2400000000000091,0.016246407771888016)"><svg viewBox="0 0 395.52 49.96750718445623" height="49.96750718445623" width="395.52"><g><svg viewBox="0 0 489.23638842792104 61.80704579710145" height="49.96750718445623" width="395.52"><g transform="matrix(1,0,0,1,93.71638842792106,8.542073623188408)"><svg viewBox="0 0 395.52 44.722898550724636" height="44.722898550724636" width="395.52"><g id="textblocktransform"><svg viewBox="0 0 395.52 44.722898550724636" height="44.722898550724636" width="395.52" id="textblock"><g><svg viewBox="0 0 395.52 44.722898550724636" height="44.722898550724636" width="395.52"><g transform="matrix(1,0,0,1,0,0)"><svg width="395.52" viewBox="0.95 -37 331.18 37.45" height="44.722898550724636" data-palette-color="#e5e5e5"><path d="M42.9-34.75L49-34.75 38.7 0 32.25 0 24.95-26.3 17.2 0 10.8 0.05 0.95-34.75 7-34.75 14.2-6.45 22-34.75 28.4-34.75 35.65-6.6 42.9-34.75ZM78.95-14.45Q78.95-12.9 78.75-11.65L78.75-11.65 57.7-11.65Q57.95-8.35 60.15-6.35 62.35-4.35 65.55-4.35L65.55-4.35Q70.15-4.35 72.05-8.2L72.05-8.2 78.2-8.2Q76.95-4.4 73.67-1.98 70.4 0.45 65.55 0.45L65.55 0.45Q61.6 0.45 58.47-1.33 55.35-3.1 53.57-6.33 51.8-9.55 51.8-13.8L51.8-13.8Q51.8-18.05 53.52-21.28 55.25-24.5 58.37-26.25 61.5-28 65.55-28L65.55-28Q69.45-28 72.5-26.3 75.55-24.6 77.25-21.53 78.95-18.45 78.95-14.45L78.95-14.45ZM57.75-16.25L73-16.25Q72.95-19.4 70.75-21.3 68.55-23.2 65.3-23.2L65.3-23.2Q62.35-23.2 60.25-21.33 58.15-19.45 57.75-16.25L57.75-16.25ZM82.65-13.9Q82.65-18.05 84.37-21.25 86.1-24.45 89.07-26.23 92.05-28 95.65-28L95.65-28Q98.9-28 101.32-26.73 103.75-25.45 105.2-23.55L105.2-23.55 105.2-27.55 110.95-27.55 110.95 0 105.2 0 105.2-4.1Q103.75-2.15 101.25-0.85 98.75 0.45 95.55 0.45L95.55 0.45Q92 0.45 89.05-1.38 86.1-3.2 84.37-6.48 82.65-9.75 82.65-13.9L82.65-13.9ZM105.2-13.8Q105.2-16.65 104.02-18.75 102.85-20.85 100.95-21.95 99.05-23.05 96.85-23.05L96.85-23.05Q94.65-23.05 92.75-21.98 90.85-20.9 89.67-18.82 88.5-16.75 88.5-13.9L88.5-13.9Q88.5-11.05 89.67-8.9 90.85-6.75 92.77-5.63 94.7-4.5 96.85-4.5L96.85-4.5Q99.05-4.5 100.95-5.6 102.85-6.7 104.02-8.83 105.2-10.95 105.2-13.8L105.2-13.8ZM131.79-22.9L125.09-22.9 125.09-7.65Q125.09-6.1 125.82-5.43 126.54-4.75 128.29-4.75L128.29-4.75 131.79-4.75 131.79 0 127.29 0Q123.44 0 121.39-1.8 119.34-3.6 119.34-7.65L119.34-7.65 119.34-22.9 116.09-22.9 116.09-27.55 119.34-27.55 119.34-34.4 125.09-34.4 125.09-27.55 131.79-27.55 131.79-22.9ZM151.29-28Q154.44-28 156.92-26.65 159.39-25.3 160.82-22.65 162.24-20 162.24-16.25L162.24-16.25 162.24 0 156.59 0 156.59-15.4Q156.59-19.1 154.74-21.08 152.89-23.05 149.69-23.05L149.69-23.05Q146.49-23.05 144.62-21.08 142.74-19.1 142.74-15.4L142.74-15.4 142.74 0 137.04 0 137.04-37 142.74-37 142.74-24.35Q144.19-26.1 146.42-27.05 148.64-28 151.29-28L151.29-28ZM194.74-14.45Q194.74-12.9 194.54-11.65L194.54-11.65 173.49-11.65Q173.74-8.35 175.94-6.35 178.14-4.35 181.34-4.35L181.34-4.35Q185.94-4.35 187.84-8.2L187.84-8.2 193.99-8.2Q192.74-4.4 189.46-1.98 186.19 0.45 181.34 0.45L181.34 0.45Q177.39 0.45 174.26-1.33 171.14-3.1 169.36-6.33 167.59-9.55 167.59-13.8L167.59-13.8Q167.59-18.05 169.31-21.28 171.04-24.5 174.16-26.25 177.29-28 181.34-28L181.34-28Q185.24-28 188.29-26.3 191.34-24.6 193.04-21.53 194.74-18.45 194.74-14.45L194.74-14.45ZM173.54-16.25L188.79-16.25Q188.74-19.4 186.54-21.3 184.34-23.2 181.09-23.2L181.09-23.2Q178.14-23.2 176.04-21.33 173.94-19.45 173.54-16.25L173.54-16.25ZM206.03-23.55Q207.28-25.65 209.36-26.83 211.44-28 214.28-28L214.28-28 214.28-22.1 212.84-22.1Q209.49-22.1 207.76-20.4 206.03-18.7 206.03-14.5L206.03-14.5 206.03 0 200.34 0 200.34-27.55 206.03-27.55 206.03-23.55ZM217.63-17.45Q217.63-22.55 220.01-26.6 222.38-30.65 226.46-32.93 230.53-35.2 235.38-35.2L235.38-35.2Q240.93-35.2 245.26-32.48 249.58-29.75 251.53-24.75L251.53-24.75 244.68-24.75Q243.33-27.5 240.93-28.85 238.53-30.2 235.38-30.2L235.38-30.2Q231.93-30.2 229.23-28.65 226.53-27.1 225.01-24.2 223.48-21.3 223.48-17.45L223.48-17.45Q223.48-13.6 225.01-10.7 226.53-7.8 229.23-6.23 231.93-4.65 235.38-4.65L235.38-4.65Q238.53-4.65 240.93-6 243.33-7.35 244.68-10.1L244.68-10.1 251.53-10.1Q249.58-5.1 245.26-2.4 240.93 0.3 235.38 0.3L235.38 0.3Q230.48 0.3 226.43-1.98 222.38-4.25 220.01-8.3 217.63-12.35 217.63-17.45L217.63-17.45ZM256.28-13.9Q256.28-18.05 258.01-21.25 259.73-24.45 262.71-26.23 265.68-28 269.28-28L269.28-28Q272.53-28 274.96-26.73 277.38-25.45 278.83-23.55L278.83-23.55 278.83-27.55 284.58-27.55 284.58 0 278.83 0 278.83-4.1Q277.38-2.15 274.88-0.85 272.38 0.45 269.18 0.45L269.18 0.45Q265.63 0.45 262.68-1.38 259.73-3.2 258.01-6.48 256.28-9.75 256.28-13.9L256.28-13.9ZM278.83-13.8Q278.83-16.65 277.66-18.75 276.48-20.85 274.58-21.95 272.68-23.05 270.48-23.05L270.48-23.05Q268.28-23.05 266.38-21.98 264.48-20.9 263.31-18.82 262.13-16.75 262.13-13.9L262.13-13.9Q262.13-11.05 263.31-8.9 264.48-6.75 266.41-5.63 268.33-4.5 270.48-4.5L270.48-4.5Q272.68-4.5 274.58-5.6 276.48-6.7 277.66-8.83 278.83-10.95 278.83-13.8L278.83-13.8ZM302.08 0.45Q298.83 0.45 296.25-0.73 293.68-1.9 292.18-3.93 290.68-5.95 290.58-8.45L290.58-8.45 296.48-8.45Q296.63-6.7 298.15-5.53 299.68-4.35 301.98-4.35L301.98-4.35Q304.38-4.35 305.7-5.28 307.03-6.2 307.03-7.65L307.03-7.65Q307.03-9.2 305.55-9.95 304.08-10.7 300.88-11.6L300.88-11.6Q297.78-12.45 295.83-13.25 293.88-14.05 292.45-15.7 291.03-17.35 291.03-20.05L291.03-20.05Q291.03-22.25 292.33-24.08 293.63-25.9 296.05-26.95 298.48-28 301.63-28L301.63-28Q306.33-28 309.2-25.63 312.08-23.25 312.28-19.15L312.28-19.15 306.58-19.15Q306.43-21 305.08-22.1 303.73-23.2 301.43-23.2L301.43-23.2Q299.18-23.2 297.98-22.35 296.78-21.5 296.78-20.1L296.78-20.1Q296.78-19 297.58-18.25 298.38-17.5 299.53-17.07 300.68-16.65 302.93-16L302.93-16Q305.93-15.2 307.85-14.38 309.78-13.55 311.18-11.95 312.58-10.35 312.63-7.7L312.63-7.7Q312.63-5.35 311.33-3.5 310.03-1.65 307.65-0.6 305.28 0.45 302.08 0.45L302.08 0.45ZM332.13-22.9L325.43-22.9 325.43-7.65Q325.43-6.1 326.15-5.43 326.88-4.75 328.63-4.75L328.63-4.75 332.13-4.75 332.13 0 327.63 0Q323.78 0 321.73-1.8 319.68-3.6 319.68-7.65L319.68-7.65 319.68-22.9 316.43-22.9 316.43-27.55 319.68-27.55 319.68-34.4 325.43-34.4 325.43-27.55 332.13-27.55 332.13-22.9Z" opacity="1" transform="matrix(1,0,0,1,0,0)" fill="#e5e5e5" class="wordmark-text-0" data-fill-palette-color="primary" id="text-0"></path></svg></g></svg></g></svg></g></svg></g><g><svg viewBox="0 0 83.15838542966019 61.80704579710145" height="61.80704579710145" width="83.15838542966019"><g><svg xmlns="http://www.w3.org/2000/svg" xmlns:xlink="http://www.w3.org/1999/xlink" version="1.1" x="0" y="0" viewBox="1.0370000000000004 13.609 97.926 72.783" enable-background="new 0 0 100 100" xml:space="preserve" height="61.80704579710145" width="83.15838542966019" class="icon-icon-0" data-fill-palette-color="accent" id="icon-0"><g fill="#e5e5e5" data-fill-palette-color="accent"><path d="M35.871 23.762v-6.745c0-1.882-1.525-3.408-3.408-3.408-1.881 0-3.408 1.526-3.408 3.408v6.745c1.111-0.177 2.25-0.272 3.408-0.272C33.623 23.49 34.762 23.584 35.871 23.762z" fill="#e5e5e5" data-fill-palette-color="accent"></path><path d="M49.906 32.412l4.779-4.779c1.33-1.331 1.33-3.489 0-4.82s-3.488-1.331-4.82 0l-4.777 4.778C46.938 28.933 48.564 30.562 49.906 32.412z" fill="#e5e5e5" data-fill-palette-color="accent"></path><path d="M15.02 32.412c1.344-1.85 2.971-3.478 4.82-4.82l-4.777-4.778c-1.332-1.331-3.49-1.331-4.82 0-1.332 1.331-1.332 3.489 0 4.82L15.02 32.412z" fill="#e5e5e5" data-fill-palette-color="accent"></path><path d="M4.445 48.443h6.746c-0.178-1.111-0.271-2.248-0.271-3.408s0.094-2.297 0.271-3.408H4.445c-1.883 0-3.408 1.526-3.408 3.408S2.562 48.443 4.445 48.443z" fill="#e5e5e5" data-fill-palette-color="accent"></path><path d="M15.02 57.657l-4.777 4.78c-1.332 1.33-1.332 3.489 0 4.819 0.664 0.666 1.537 0.999 2.41 0.999 0.871 0 1.744-0.333 2.41-0.999l4.777-4.778C17.99 61.136 16.363 59.507 15.02 57.657z" fill="#e5e5e5" data-fill-palette-color="accent"></path><path d="M17.736 45.035c0 1.175 0.15 2.312 0.412 3.408 0.367 1.543 0.975 2.99 1.785 4.302 1.209 1.961 2.859 3.611 4.818 4.82 0.268 0.164 0.531 0.328 0.809 0.477 2.531-3.09 5.906-5.473 9.818-6.77 2.123-5.323 5.664-9.817 10.102-13.123-0.152-0.283-0.318-0.554-0.486-0.826-1.207-1.96-2.859-3.611-4.818-4.82-1.314-0.81-2.76-1.419-4.305-1.785-1.096-0.261-2.232-0.413-3.408-0.413s-2.312 0.152-3.408 0.413c-1.543 0.366-2.988 0.975-4.303 1.785-1.959 1.209-3.611 2.86-4.818 4.82-0.811 1.312-1.418 2.759-1.785 4.302C17.887 42.722 17.736 43.86 17.736 45.035z" fill="#e5e5e5" data-fill-palette-color="accent"></path><path d="M83.811 49.99c-4.336-6.848-11.969-11.077-20.068-11.077-3.58 0-7.002 0.819-10.084 2.274-1.107 0.522-2.172 1.122-3.182 1.803-1.188 0.803-2.293 1.717-3.318 2.719-3.111 3.041-5.418 6.93-6.488 11.359-2.596 0.271-4.971 1.212-6.975 2.632-1.301 0.922-2.443 2.045-3.381 3.332-0.711 0.978-1.307 2.045-1.762 3.186-0.672 1.688-1.043 3.53-1.043 5.464 0 8.111 6.6 14.71 14.711 14.71h38.4c0.484 0 0.963-0.025 1.438-0.062 9.479-0.74 16.904-8.77 16.904-18.28C98.963 59.175 92.492 51.521 83.811 49.99zM80.621 78.65h-38.4c-3.844 0-6.969-3.126-6.969-6.969 0-2.574 1.395-4.835 3.502-6.041 0.668-0.382 1.402-0.658 2.191-0.804 0.174-0.032 0.346-0.062 0.523-0.081 0.248-0.027 0.498-0.043 0.752-0.043 1.281 0 2.543 0.361 3.646 1.045 0.213 0.131 0.451 0.195 0.688 0.195 0.004 0 0.008 0 0.012 0 0.002 0 0.004 0 0.008 0 0.721 0 1.307-0.585 1.307-1.307 0-0.122-0.018-0.241-0.049-0.354-0.059-0.56-0.088-1.111-0.088-1.64 0-0.907 0.096-1.813 0.25-2.708 0.033-0.19 0.051-0.384 0.09-0.572 0.732-3.508 2.617-6.547 5.193-8.779 2.84-2.46 6.518-3.939 10.465-3.939 4.676 0 9.109 2.05 12.164 5.625 1.125 1.316 2.023 2.796 2.672 4.395 0.197 0.493 0.672 0.818 1.199 0.818 0.033 0 0.066-0.002 0.1-0.004l0.133-0.008c0.229-0.017 0.457-0.025 0.686-0.025 1.453 0 2.908 0.322 4.27 0.938 3.801 1.717 6.256 5.508 6.256 9.658C91.221 73.895 86.465 78.65 80.621 78.65z" fill="#e5e5e5" data-fill-palette-color="accent"></path></g></svg></g></svg></g></svg></g><defs></defs></svg><rect width="395.52" height="49.96750718445623" fill="none" stroke="none" visibility="hidden"></rect></g></svg></g></svg>