<svg xmlns="http://www.w3.org/2000/svg" xmlns:xlink="http://www.w3.org/1999/xlink" version="1.1" width="1000" height="1000" viewBox="0 0 1000 1000" xml:space="preserve">
<desc>Created with Fabric.js 3.5.0</desc>
<defs>
</defs>
<rect x="0" y="0" width="100%" height="100%" fill="rgba(255,255,255,0)"/>
<g transform="matrix(7.3975 0 0 7.3975 500.0021 500.0015)" id="967334">
<path style="stroke: none; stroke-width: 1; stroke-dasharray: none; stroke-linecap: butt; stroke-dashoffset: 0; stroke-linejoin: miter; stroke-miterlimit: 4; is-custom-font: none; font-file-url: none; fill: rgb(229,229,229); fill-rule: nonzero; opacity: 1;" vector-effect="non-scaling-stroke" transform=" translate(-61.4461, -45.0425)" d="M 29.47 31.46 c -0.37 1.98 -2.27 3.28 -4.25 2.91 c -1.98 -0.37 -3.28 -2.27 -2.91 -4.25 c 1.87 -9.86 6.82 -17.35 13.35 -22.41 c 5.59 -4.34 12.33 -6.86 19.26 -7.53 c 6.9 -0.67 14 0.51 20.37 3.57 c 6.96 3.34 13.03 8.91 16.97 16.73 c 1.58 -0.25 3.17 -0.37 4.75 -0.36 c 6.66 0.04 13.09 2.43 18.15 7.88 c 1.06 1.14 2.06 2.43 3 3.87 c 3.17 4.88 4.8 11.39 4.73 17.77 c -0.07 6.25 -1.76 12.48 -5.21 17.07 c -2.25 2.99 -5.13 5.42 -8.59 7.36 c -3.34 1.87 -7.22 3.28 -11.58 4.3 l -0.81 0.1 H 70.65 c -2.02 0 -3.65 -1.64 -3.65 -3.65 s 1.64 -3.65 3.65 -3.65 h 25.64 c 3.5 -0.84 6.59 -1.98 9.22 -3.45 c 2.61 -1.46 4.74 -3.24 6.34 -5.36 c 2.48 -3.3 3.7 -7.97 3.75 -12.76 c 0.05 -5.03 -1.17 -10.07 -3.56 -13.75 c -0.69 -1.06 -1.43 -2.01 -2.23 -2.87 c -3.58 -3.85 -8.13 -5.54 -12.84 -5.57 c -3.43 -0.02 -6.96 0.8 -10.32 2.29 c -0.75 0.37 -1.49 0.77 -2.23 1.2 c -2.24 1.31 -4.44 2.91 -6.68 4.74 l -4.79 -5.49 c 1.65 -1.54 3.45 -2.94 5.36 -4.18 c 1.52 -0.99 3.1 -1.87 4.73 -2.63 c 0.65 -0.33 1.31 -0.64 1.98 -0.92 c -3.17 -5.6 -7.72 -9.62 -12.87 -12.1 c -5.16 -2.47 -10.93 -3.42 -16.55 -2.88 C 50.01 7.97 44.59 10 40.1 13.48 C 34.92 17.5 30.98 23.51 29.47 31.46 L 29.47 31.46 z M 3.65 56.38 C 1.64 56.39 0.01 54.77 0 52.76 c -0.01 -2.01 1.61 -3.65 3.62 -3.65 L 46 48.89 c 0.06 0 0.11 0 0.17 0 l 0 0 c 6.14 0.27 9.61 -1.37 11 -3.58 c 0.58 -0.92 0.79 -1.98 0.66 -3.01 c -0.13 -1.09 -0.62 -2.17 -1.43 -3.07 c -1.77 -1.99 -5.05 -3.1 -9.45 -1.92 c -1.95 0.52 -3.95 -0.64 -4.47 -2.58 c -0.52 -1.95 0.64 -3.95 2.58 -4.47 c 7.46 -2 13.36 0.27 16.78 4.12 c 1.81 2.03 2.93 4.52 3.23 7.1 c 0.31 2.62 -0.24 5.32 -1.75 7.72 c -2.66 4.21 -8.28 7.38 -17.46 6.97 L 3.65 56.38 L 3.65 56.38 z M 13.37 70.53 c -2.02 0 -3.65 -1.64 -3.65 -3.65 c 0 -2.02 1.64 -3.65 3.65 -3.65 h 19.16 l 0.03 0 c 8.92 -0.5 14.46 2.57 17.13 6.74 c 1.55 2.42 2.12 5.18 1.83 7.87 c -0.29 2.62 -1.4 5.18 -3.23 7.28 c -3.41 3.91 -9.26 6.23 -16.7 4.24 c -1.95 -0.52 -3.1 -2.52 -2.58 -4.47 c 0.52 -1.95 2.52 -3.1 4.47 -2.58 c 4.35 1.17 7.59 0.03 9.34 -1.98 c 0.83 -0.95 1.34 -2.1 1.46 -3.26 c 0.12 -1.1 -0.1 -2.21 -0.72 -3.16 c -1.39 -2.16 -4.72 -3.72 -10.57 -3.4 c -0.15 0.02 -0.3 0.03 -0.46 0.03 H 13.37 L 13.37 70.53 z" stroke-linecap="round"/>
</g>
</svg>